<mxfile host="65bd71144e">
    <diagram id="etNW1VzHUkbLah4mJFjx" name="Page-1">
        <mxGraphModel dx="1616" dy="516" grid="0" gridSize="10" guides="1" tooltips="1" connect="1" arrows="1" fold="1" page="0" pageScale="1" pageWidth="850" pageHeight="1100" math="0" shadow="0">
            <root>
                <mxCell id="0"/>
                <mxCell id="1" parent="0"/>
                <mxCell id="2" value="&lt;br&gt;可见视图&lt;br&gt;Page0" style="rounded=0;whiteSpace=wrap;html=1;fillColor=#7FB80E;" vertex="1" parent="1">
                    <mxGeometry x="180" y="140" width="190" height="310" as="geometry"/>
                </mxCell>
                <mxCell id="3" value="下一个（预）可见视图&lt;br&gt;Page1" style="rounded=0;whiteSpace=wrap;html=1;fillColor=#007FFF;" vertex="1" parent="1">
                    <mxGeometry x="370" y="140" width="190" height="310" as="geometry"/>
                </mxCell>
                <mxCell id="4" value="完全不可见视图&lt;br&gt;Page2" style="rounded=0;whiteSpace=wrap;html=1;fillColor=#FFFF00;" vertex="1" parent="1">
                    <mxGeometry x="560" y="140" width="190" height="310" as="geometry"/>
                </mxCell>
                <mxCell id="11" value="position=0" style="shape=umlLifeline;participant=umlEntity;perimeter=lifelinePerimeter;whiteSpace=wrap;html=1;container=1;collapsible=0;recursiveResize=0;verticalAlign=top;spacingTop=36;outlineConnect=0;fillColor=#FFB366;" vertex="1" parent="1">
                    <mxGeometry x="160" y="20" width="40" height="560" as="geometry"/>
                </mxCell>
                <mxCell id="12" value="position=-1" style="shape=umlLifeline;participant=umlEntity;perimeter=lifelinePerimeter;whiteSpace=wrap;html=1;container=1;collapsible=0;recursiveResize=0;verticalAlign=top;spacingTop=36;outlineConnect=0;fillColor=#FFB366;" vertex="1" parent="1">
                    <mxGeometry x="-30" y="15" width="40" height="560" as="geometry"/>
                </mxCell>
                <mxCell id="13" value="position=1" style="shape=umlLifeline;participant=umlEntity;perimeter=lifelinePerimeter;whiteSpace=wrap;html=1;container=1;collapsible=0;recursiveResize=0;verticalAlign=top;spacingTop=36;outlineConnect=0;fillColor=#FFB366;" vertex="1" parent="1">
                    <mxGeometry x="350" y="20" width="40" height="560" as="geometry"/>
                </mxCell>
                <mxCell id="19" value="&lt;br&gt;上一个（预）可见视图&lt;br&gt;Page0" style="rounded=0;whiteSpace=wrap;html=1;fillColor=#7FB80E;" vertex="1" parent="1">
                    <mxGeometry x="-10" y="760" width="190" height="310" as="geometry"/>
                </mxCell>
                <mxCell id="20" value="可见视图&lt;br&gt;Page1" style="rounded=0;whiteSpace=wrap;html=1;fillColor=#007FFF;" vertex="1" parent="1">
                    <mxGeometry x="180" y="760" width="190" height="310" as="geometry"/>
                </mxCell>
                <mxCell id="21" value="下一个（预）可见视图&lt;br&gt;Page2" style="rounded=0;whiteSpace=wrap;html=1;fillColor=#FFFF00;" vertex="1" parent="1">
                    <mxGeometry x="370" y="760" width="190" height="310" as="geometry"/>
                </mxCell>
                <mxCell id="22" value="position=0" style="shape=umlLifeline;participant=umlEntity;perimeter=lifelinePerimeter;whiteSpace=wrap;html=1;container=1;collapsible=0;recursiveResize=0;verticalAlign=top;spacingTop=36;outlineConnect=0;fillColor=#FFB366;" vertex="1" parent="1">
                    <mxGeometry x="160" y="640" width="40" height="560" as="geometry"/>
                </mxCell>
                <mxCell id="23" value="position=-1" style="shape=umlLifeline;participant=umlEntity;perimeter=lifelinePerimeter;whiteSpace=wrap;html=1;container=1;collapsible=0;recursiveResize=0;verticalAlign=top;spacingTop=36;outlineConnect=0;fillColor=#FFB366;" vertex="1" parent="1">
                    <mxGeometry x="-30" y="640" width="40" height="560" as="geometry"/>
                </mxCell>
                <mxCell id="24" value="position=1" style="shape=umlLifeline;participant=umlEntity;perimeter=lifelinePerimeter;whiteSpace=wrap;html=1;container=1;collapsible=0;recursiveResize=0;verticalAlign=top;spacingTop=36;outlineConnect=0;fillColor=#FFB366;" vertex="1" parent="1">
                    <mxGeometry x="350" y="640" width="40" height="560" as="geometry"/>
                </mxCell>
                <mxCell id="25" value="完全不可见视图&lt;br&gt;Page3" style="rounded=0;whiteSpace=wrap;html=1;fillColor=#FFB366;" vertex="1" parent="1">
                    <mxGeometry x="750" y="140" width="190" height="310" as="geometry"/>
                </mxCell>
                <mxCell id="26" value="完全不可见视图&lt;br&gt;Page3" style="rounded=0;whiteSpace=wrap;html=1;fillColor=#FFB366;" vertex="1" parent="1">
                    <mxGeometry x="560" y="760" width="190" height="310" as="geometry"/>
                </mxCell>
                <mxCell id="27" value="&lt;br&gt;完全不可见视图&lt;br&gt;Page0" style="rounded=0;whiteSpace=wrap;html=1;fillColor=#7FB80E;" vertex="1" parent="1">
                    <mxGeometry x="-200" y="1405" width="190" height="310" as="geometry"/>
                </mxCell>
                <mxCell id="28" value="上一个（预）可见视图&lt;br&gt;Page1" style="rounded=0;whiteSpace=wrap;html=1;fillColor=#007FFF;" vertex="1" parent="1">
                    <mxGeometry x="-10" y="1405" width="190" height="310" as="geometry"/>
                </mxCell>
                <mxCell id="29" value="可见视图&lt;br&gt;Page2" style="rounded=0;whiteSpace=wrap;html=1;fillColor=#FFFF00;" vertex="1" parent="1">
                    <mxGeometry x="180" y="1405" width="190" height="310" as="geometry"/>
                </mxCell>
                <mxCell id="30" value="position=0" style="shape=umlLifeline;participant=umlEntity;perimeter=lifelinePerimeter;whiteSpace=wrap;html=1;container=1;collapsible=0;recursiveResize=0;verticalAlign=top;spacingTop=36;outlineConnect=0;fillColor=#FFB366;" vertex="1" parent="1">
                    <mxGeometry x="160" y="1280" width="40" height="560" as="geometry"/>
                </mxCell>
                <mxCell id="31" value="position=-1" style="shape=umlLifeline;participant=umlEntity;perimeter=lifelinePerimeter;whiteSpace=wrap;html=1;container=1;collapsible=0;recursiveResize=0;verticalAlign=top;spacingTop=36;outlineConnect=0;fillColor=#FFB366;" vertex="1" parent="1">
                    <mxGeometry x="-30" y="1280" width="40" height="560" as="geometry"/>
                </mxCell>
                <mxCell id="32" value="position=1" style="shape=umlLifeline;participant=umlEntity;perimeter=lifelinePerimeter;whiteSpace=wrap;html=1;container=1;collapsible=0;recursiveResize=0;verticalAlign=top;spacingTop=36;outlineConnect=0;fillColor=#FFB366;" vertex="1" parent="1">
                    <mxGeometry x="350" y="1280" width="40" height="560" as="geometry"/>
                </mxCell>
                <mxCell id="33" value="下一个（预）可见视图&lt;br&gt;Page3" style="rounded=0;whiteSpace=wrap;html=1;fillColor=#FFB366;" vertex="1" parent="1">
                    <mxGeometry x="370" y="1405" width="190" height="310" as="geometry"/>
                </mxCell>
                <mxCell id="34" value="position=-2" style="shape=umlLifeline;participant=umlEntity;perimeter=lifelinePerimeter;whiteSpace=wrap;html=1;container=1;collapsible=0;recursiveResize=0;verticalAlign=top;spacingTop=36;outlineConnect=0;fillColor=#FFB366;" vertex="1" parent="1">
                    <mxGeometry x="-220" y="1280" width="40" height="560" as="geometry"/>
                </mxCell>
                <mxCell id="35" value="&lt;br&gt;完全不可见视图&lt;br&gt;Page0" style="rounded=0;whiteSpace=wrap;html=1;fillColor=#7FB80E;" vertex="1" parent="1">
                    <mxGeometry x="-390" y="2055" width="190" height="310" as="geometry"/>
                </mxCell>
                <mxCell id="36" value="完全不可见视图&lt;br&gt;Page1" style="rounded=0;whiteSpace=wrap;html=1;fillColor=#007FFF;" vertex="1" parent="1">
                    <mxGeometry x="-200" y="2055" width="190" height="310" as="geometry"/>
                </mxCell>
                <mxCell id="37" value="上一个（预）可见视图&lt;br&gt;Page2" style="rounded=0;whiteSpace=wrap;html=1;fillColor=#FFFF00;" vertex="1" parent="1">
                    <mxGeometry x="-10" y="2055" width="190" height="310" as="geometry"/>
                </mxCell>
                <mxCell id="38" value="position=0" style="shape=umlLifeline;participant=umlEntity;perimeter=lifelinePerimeter;whiteSpace=wrap;html=1;container=1;collapsible=0;recursiveResize=0;verticalAlign=top;spacingTop=36;outlineConnect=0;fillColor=#FFB366;" vertex="1" parent="1">
                    <mxGeometry x="160" y="1930" width="40" height="560" as="geometry"/>
                </mxCell>
                <mxCell id="39" value="position=-1" style="shape=umlLifeline;participant=umlEntity;perimeter=lifelinePerimeter;whiteSpace=wrap;html=1;container=1;collapsible=0;recursiveResize=0;verticalAlign=top;spacingTop=36;outlineConnect=0;fillColor=#FFB366;" vertex="1" parent="1">
                    <mxGeometry x="-30" y="1930" width="40" height="560" as="geometry"/>
                </mxCell>
                <mxCell id="40" value="position=1" style="shape=umlLifeline;participant=umlEntity;perimeter=lifelinePerimeter;whiteSpace=wrap;html=1;container=1;collapsible=0;recursiveResize=0;verticalAlign=top;spacingTop=36;outlineConnect=0;fillColor=#FFB366;" vertex="1" parent="1">
                    <mxGeometry x="350" y="1930" width="40" height="560" as="geometry"/>
                </mxCell>
                <mxCell id="41" value="可见视图&lt;br&gt;Page3" style="rounded=0;whiteSpace=wrap;html=1;fillColor=#FFB366;" vertex="1" parent="1">
                    <mxGeometry x="180" y="2055" width="190" height="310" as="geometry"/>
                </mxCell>
                <mxCell id="42" value="position=-2" style="shape=umlLifeline;participant=umlEntity;perimeter=lifelinePerimeter;whiteSpace=wrap;html=1;container=1;collapsible=0;recursiveResize=0;verticalAlign=top;spacingTop=36;outlineConnect=0;fillColor=#FFB366;" vertex="1" parent="1">
                    <mxGeometry x="-220" y="1930" width="40" height="560" as="geometry"/>
                </mxCell>
                <mxCell id="43" value="&lt;br&gt;完全不可见视图&lt;br&gt;Page0" style="rounded=0;whiteSpace=wrap;html=1;fillColor=#7FB80E;" vertex="1" parent="1">
                    <mxGeometry x="-200" y="2685" width="190" height="310" as="geometry"/>
                </mxCell>
                <mxCell id="44" value="上一个（预）可见视图&lt;br&gt;Page1" style="rounded=0;whiteSpace=wrap;html=1;fillColor=#007FFF;" vertex="1" parent="1">
                    <mxGeometry x="-10" y="2685" width="190" height="310" as="geometry"/>
                </mxCell>
                <mxCell id="45" value="可见视图&lt;br&gt;Page2" style="rounded=0;whiteSpace=wrap;html=1;fillColor=#FFFF00;" vertex="1" parent="1">
                    <mxGeometry x="180" y="2685" width="190" height="310" as="geometry"/>
                </mxCell>
                <mxCell id="46" value="position=0" style="shape=umlLifeline;participant=umlEntity;perimeter=lifelinePerimeter;whiteSpace=wrap;html=1;container=1;collapsible=0;recursiveResize=0;verticalAlign=top;spacingTop=36;outlineConnect=0;fillColor=#FFB366;" vertex="1" parent="1">
                    <mxGeometry x="160" y="2560" width="40" height="560" as="geometry"/>
                </mxCell>
                <mxCell id="47" value="position=-1" style="shape=umlLifeline;participant=umlEntity;perimeter=lifelinePerimeter;whiteSpace=wrap;html=1;container=1;collapsible=0;recursiveResize=0;verticalAlign=top;spacingTop=36;outlineConnect=0;fillColor=#FFB366;" vertex="1" parent="1">
                    <mxGeometry x="-30" y="2560" width="40" height="560" as="geometry"/>
                </mxCell>
                <mxCell id="48" value="position=1" style="shape=umlLifeline;participant=umlEntity;perimeter=lifelinePerimeter;whiteSpace=wrap;html=1;container=1;collapsible=0;recursiveResize=0;verticalAlign=top;spacingTop=36;outlineConnect=0;fillColor=#FFB366;" vertex="1" parent="1">
                    <mxGeometry x="350" y="2560" width="40" height="560" as="geometry"/>
                </mxCell>
                <mxCell id="49" value="下一个（预）可见视图&lt;br&gt;Page3" style="rounded=0;whiteSpace=wrap;html=1;fillColor=#FFB366;" vertex="1" parent="1">
                    <mxGeometry x="370" y="2685" width="190" height="310" as="geometry"/>
                </mxCell>
                <mxCell id="51" value="&lt;br&gt;上一个（预）可见视图&lt;br&gt;Page0" style="rounded=0;whiteSpace=wrap;html=1;fillColor=#7FB80E;" vertex="1" parent="1">
                    <mxGeometry x="-10" y="3310" width="190" height="310" as="geometry"/>
                </mxCell>
                <mxCell id="52" value="可见视图&lt;br&gt;Page1" style="rounded=0;whiteSpace=wrap;html=1;fillColor=#007FFF;" vertex="1" parent="1">
                    <mxGeometry x="180" y="3310" width="190" height="310" as="geometry"/>
                </mxCell>
                <mxCell id="53" value="下一个（预）可见视图&lt;br&gt;Page2" style="rounded=0;whiteSpace=wrap;html=1;fillColor=#FFFF00;" vertex="1" parent="1">
                    <mxGeometry x="370" y="3310" width="190" height="310" as="geometry"/>
                </mxCell>
                <mxCell id="54" value="position=0" style="shape=umlLifeline;participant=umlEntity;perimeter=lifelinePerimeter;whiteSpace=wrap;html=1;container=1;collapsible=0;recursiveResize=0;verticalAlign=top;spacingTop=36;outlineConnect=0;fillColor=#FFB366;" vertex="1" parent="1">
                    <mxGeometry x="160" y="3190" width="40" height="560" as="geometry"/>
                </mxCell>
                <mxCell id="55" value="position=-1" style="shape=umlLifeline;participant=umlEntity;perimeter=lifelinePerimeter;whiteSpace=wrap;html=1;container=1;collapsible=0;recursiveResize=0;verticalAlign=top;spacingTop=36;outlineConnect=0;fillColor=#FFB366;" vertex="1" parent="1">
                    <mxGeometry x="-30" y="3190" width="40" height="560" as="geometry"/>
                </mxCell>
                <mxCell id="56" value="position=1" style="shape=umlLifeline;participant=umlEntity;perimeter=lifelinePerimeter;whiteSpace=wrap;html=1;container=1;collapsible=0;recursiveResize=0;verticalAlign=top;spacingTop=36;outlineConnect=0;fillColor=#FFB366;" vertex="1" parent="1">
                    <mxGeometry x="350" y="3190" width="40" height="560" as="geometry"/>
                </mxCell>
                <mxCell id="57" value="完全不可见视图&lt;br&gt;Page3" style="rounded=0;whiteSpace=wrap;html=1;fillColor=#FFB366;" vertex="1" parent="1">
                    <mxGeometry x="560" y="3310" width="190" height="310" as="geometry"/>
                </mxCell>
                <mxCell id="58" value="&lt;br&gt;可见视图&lt;br&gt;Page0" style="rounded=0;whiteSpace=wrap;html=1;fillColor=#7FB80E;" vertex="1" parent="1">
                    <mxGeometry x="180" y="3950" width="190" height="310" as="geometry"/>
                </mxCell>
                <mxCell id="59" value="下一个（预）可见视图&lt;br&gt;Page1" style="rounded=0;whiteSpace=wrap;html=1;fillColor=#007FFF;" vertex="1" parent="1">
                    <mxGeometry x="370" y="3950" width="190" height="310" as="geometry"/>
                </mxCell>
                <mxCell id="60" value="完全不可见视图&lt;br&gt;Page2" style="rounded=0;whiteSpace=wrap;html=1;fillColor=#FFFF00;" vertex="1" parent="1">
                    <mxGeometry x="560" y="3950" width="190" height="310" as="geometry"/>
                </mxCell>
                <mxCell id="61" value="position=0" style="shape=umlLifeline;participant=umlEntity;perimeter=lifelinePerimeter;whiteSpace=wrap;html=1;container=1;collapsible=0;recursiveResize=0;verticalAlign=top;spacingTop=36;outlineConnect=0;fillColor=#FFB366;" vertex="1" parent="1">
                    <mxGeometry x="160" y="3830" width="40" height="560" as="geometry"/>
                </mxCell>
                <mxCell id="62" value="position=-1" style="shape=umlLifeline;participant=umlEntity;perimeter=lifelinePerimeter;whiteSpace=wrap;html=1;container=1;collapsible=0;recursiveResize=0;verticalAlign=top;spacingTop=36;outlineConnect=0;fillColor=#FFB366;" vertex="1" parent="1">
                    <mxGeometry x="-30" y="3830" width="40" height="560" as="geometry"/>
                </mxCell>
                <mxCell id="63" value="position=1" style="shape=umlLifeline;participant=umlEntity;perimeter=lifelinePerimeter;whiteSpace=wrap;html=1;container=1;collapsible=0;recursiveResize=0;verticalAlign=top;spacingTop=36;outlineConnect=0;fillColor=#FFB366;" vertex="1" parent="1">
                    <mxGeometry x="350" y="3830" width="40" height="560" as="geometry"/>
                </mxCell>
                <mxCell id="64" value="完全不可见视图&lt;br&gt;Page3" style="rounded=0;whiteSpace=wrap;html=1;fillColor=#FFB366;" vertex="1" parent="1">
                    <mxGeometry x="750" y="3950" width="190" height="310" as="geometry"/>
                </mxCell>
                <mxCell id="65" value="position=2" style="shape=umlLifeline;participant=umlEntity;perimeter=lifelinePerimeter;whiteSpace=wrap;html=1;container=1;collapsible=0;recursiveResize=0;verticalAlign=top;spacingTop=36;outlineConnect=0;fillColor=#FFB366;" vertex="1" parent="1">
                    <mxGeometry x="541" y="3832" width="40" height="560" as="geometry"/>
                </mxCell>
            </root>
        </mxGraphModel>
    </diagram>
</mxfile>